<svg id="Layer_1" data-name="Layer 1" xmlns="http://www.w3.org/2000/svg" viewBox="0 0 20 20"><defs><style>.cls-1{stroke:#000;stroke-miterlimit:10;}</style></defs><title>settings icon</title><path class="cls-1" d="M7.78,4.74s.41-.24.41-.55"/><path class="cls-1" d="M12.22,4.74s-.41-.24-.41-.55"/><path class="cls-1" d="M9.44,1.06h1.11a1.25,1.25,0,0,1,1.25,1.25V4.55a0,0,0,0,1,0,0H8.19a0,0,0,0,1,0,0V2.31A1.25,1.25,0,0,1,9.44,1.06Z"/><path class="cls-1" d="M4.66,7.87s.12-.46-.1-.68"/><path class="cls-1" d="M7.8,4.73s-.47.13-.68-.09"/><path class="cls-1" d="M4.3,3.19H5.41A1.25,1.25,0,0,1,6.66,4.44V6.68a0,0,0,0,1,0,0H3.05a0,0,0,0,1,0,0V4.44A1.25,1.25,0,0,1,4.3,3.19Z" transform="translate(-2.07 4.88) rotate(-45)"/><path class="cls-1" d="M4.66,12.3s-.24-.42-.54-.42"/><path class="cls-1" d="M4.66,7.86s-.24.41-.54.41"/><path class="cls-1" d="M2.17,8.34H3.28A1.25,1.25,0,0,1,4.53,9.59v2.23a0,0,0,0,1,0,0H.92a0,0,0,0,1,0,0V9.59A1.25,1.25,0,0,1,2.17,8.34Z" transform="translate(-7.35 12.8) rotate(-90)"/><path class="cls-1" d="M7.8,15.42s-.47-.12-.68.09"/><path class="cls-1" d="M4.66,12.28s.12.46-.1.68"/><path class="cls-1" d="M4.3,13.48H5.41a1.25,1.25,0,0,1,1.25,1.25V17a0,0,0,0,1,0,0H3.05a0,0,0,0,1,0,0V14.73A1.25,1.25,0,0,1,4.3,13.48Z" transform="translate(-2.47 29.42) rotate(-135)"/><path class="cls-1" d="M12.22,15.41s-.41.24-.41.55"/><path class="cls-1" d="M7.78,15.41s.41.24.41.55"/><path class="cls-1" d="M9.44,15.61h1.11a1.25,1.25,0,0,1,1.25,1.25v2.23a0,0,0,0,1,0,0H8.19a0,0,0,0,1,0,0V16.86A1.25,1.25,0,0,1,9.44,15.61Z" transform="translate(20 34.7) rotate(-180)"/><path class="cls-1" d="M15.34,12.28s-.12.46.1.68"/><path class="cls-1" d="M12.2,15.42s.47-.12.68.09"/><path class="cls-1" d="M14.59,13.48H15.7a1.25,1.25,0,0,1,1.25,1.25V17a0,0,0,0,1,0,0H13.34a0,0,0,0,1,0,0V14.73A1.25,1.25,0,0,1,14.59,13.48Z" transform="translate(36.61 15.27) rotate(135)"/><path class="cls-1" d="M15.34,7.86s.24.41.54.41"/><path class="cls-1" d="M15.34,12.3s.24-.42.54-.42"/><path class="cls-1" d="M16.72,8.34h1.11a1.25,1.25,0,0,1,1.25,1.25v2.23a0,0,0,0,1,0,0H15.47a0,0,0,0,1,0,0V9.59A1.25,1.25,0,0,1,16.72,8.34Z" transform="translate(27.35 -7.2) rotate(90)"/><path class="cls-1" d="M12.2,4.73s.47.13.68-.09"/><path class="cls-1" d="M15.34,7.87s-.12-.46.1-.68"/><path class="cls-1" d="M14.59,3.19H15.7a1.25,1.25,0,0,1,1.25,1.25V6.68a0,0,0,0,1,0,0H13.34a0,0,0,0,1,0,0V4.44a1.25,1.25,0,0,1,1.25-1.25Z" transform="translate(7.92 -9.26) rotate(45)"/><path d="M10,4.19a5.89,5.89,0,1,0,5.88,5.89A5.89,5.89,0,0,0,10,4.19Zm0,9.08a3.2,3.2,0,1,1,3.19-3.19A3.19,3.19,0,0,1,10,13.27Z"/></svg>